<svg xmlns="http://www.w3.org/2000/svg" viewBox="0 0 623 718" width="623" height="718">
	<style>
		tspan { white-space:pre }
		.shp0 { fill: none } 
		.shp1 { fill: #706bb8 } 
		.shp2 { fill: #2b1256 } 
	</style>
	<g id="react-group-59">
		<g id="react-group-60">
			<path id="react-rect-62" class="shp0" d="M0 0L623 0L623 718L0 718L0 0Z" />
			<path id="react-path-63" fill-rule="evenodd" class="shp1" d="M171.12 169.47C170.41 181 169.71 192.53 169 204.07C173.54 202.76 202.41 194.26 200.63 202.88C199.35 209.05 191.23 215.74 187.09 220.04C183.29 224 179.37 227.85 175.35 231.6C182.74 228.77 190.19 226.09 197.69 223.59C203.37 221.69 209.08 219.84 214.9 218.42C217.06 217.89 222.89 215.74 224.93 217.21C230.29 221.07 201.21 249.48 197.22 253.48C202.86 250.86 208.62 248.48 214.49 246.44C218.73 244.97 231.81 239.33 235.56 244.14C239.57 249.29 229.63 261.11 226.88 264.86C222.93 270.23 218.65 275.38 214.16 280.31C232.82 297.08 254.76 312 278.1 321.27C295.21 328.07 312.03 329.8 330.09 326.07C348.64 322.24 366.44 314.88 383.35 306.48C393.28 301.54 403.09 296.2 412.43 290.2C408.58 285.51 404.84 280.73 401.21 275.88C396.02 268.95 389.65 261.37 386.7 253.13C383.8 245.05 394.66 246.63 399.86 247.07C407.4 247.7 414.92 249.05 422.3 250.66C417.08 247.03 411.95 243.25 406.93 239.35C400.38 234.26 391.64 228.52 387.35 221.2C383.58 214.77 391.86 216.39 395.68 217.24C404.81 219.25 413.68 222.67 422.38 226.01C428.75 228.46 435.08 231.02 441.36 233.72C437.46 230.33 433.7 226.79 430.09 223.11C425.23 218.17 418.67 212.14 416.49 205.33C412.06 191.47 441.9 201.93 447 204.07C446.06 189.71 445.12 175.36 444.18 161C404.66 171.52 365.13 182.03 325.61 192.55C321.34 193.69 315.99 196.16 311.54 196.3C307.5 196.42 302.63 194.6 298.7 193.85L227.18 180.18C208.49 176.61 189.8 173.04 171.12 169.47Z" />
			<g id="react-group-61">
				<path id="react-path-64" fill-rule="evenodd" class="shp2" d="M585.1 683.75C570.55 688.69 556.06 690.38 541.02 690.5C532.42 690.56 523.93 691.96 515.32 691.7C509.94 691.53 502.96 695.37 500.1 688.89C498.36 684.96 499.36 684.32 494.64 683.11C491.63 682.34 489.13 681.92 486.05 681.59C478.89 680.81 472.31 677.1 465.19 675.74C449.16 672.67 434.22 665.87 418.96 660.33C415.11 658.93 411.1 657.85 407.3 656.32C403.77 654.91 400.65 652.68 397.16 651.2C390.36 648.33 382.84 647.32 375.86 644.94C369.47 642.77 363.2 639.52 357.17 636.52C351.07 633.49 344.38 633.52 339.17 628.64C333.57 623.39 328.67 615.56 325.26 608.72C323.85 605.9 323.37 602.61 321.88 599.87C320.04 596.47 316.98 596.25 314.09 594.05C309.33 590.44 306.56 583.41 301.48 580.54C295.04 576.9 289.92 581.69 285.27 585.48C282.32 587.88 278.79 589.83 276.47 592.91C274.31 595.79 274.67 598.15 274.31 601.43C273.93 604.82 273.11 614.12 268.91 610.29C268.54 613.37 268.21 613.06 266.86 615.28C265.39 617.69 264.85 620.23 265.42 623C264.59 622.45 263.76 621.91 262.94 621.36C263.19 622.79 263.56 623.91 262.58 625.17C261.43 623.84 260.9 618.11 257.83 621.69C256.03 623.79 257.62 626.36 259.34 627.36C257.33 627.36 256.53 627.08 254.73 627.75C254.02 628.02 253.22 628.9 252.4 629.18C251.33 629.55 250.84 628.33 249 629.53C247.92 630.24 247.21 631.53 246.25 632.39C239.81 638.15 231.6 641.35 223.62 644.15C206.48 650.17 191 659.69 175.36 668.68C162.87 675.86 152.03 685.17 139.34 692.14C132.29 696.01 125.26 701.36 117.06 702.21C110.12 702.94 102.45 703.39 95.56 702.54C79.38 700.55 62.78 701.97 46.64 698.43C33.82 695.62 17.81 689.62 15.72 674.88C13.63 660.13 27.19 649.23 35.7 639.06C45.8 626.98 58.41 619.59 71.43 611.04C85.78 601.62 99.48 590.89 112.86 580.16C125.26 570.2 136.7 558.83 146.19 545.97C144.88 545.77 142.55 544.62 141.26 545.1C140.38 545.43 139.24 547.69 138.58 547.63C138.01 547.58 138.03 546.78 136.84 546.69C135.36 546.58 133.8 546.8 132.07 546.48C130.85 546.25 128.68 546.25 127.58 545.78C126.86 545.47 126.1 544.52 125.53 544.3C123.96 543.69 122.44 544.91 120.79 544.27C119.68 543.84 119.25 542.42 117.98 542.37C116.85 542.33 116.59 543.76 115.62 543.83C114.4 543.92 113 542.58 111.86 542.16C108.98 541.11 105.45 540.36 102.53 539.53C100.11 538.83 97.5 538.28 95.07 537.74C90.29 536.69 85.56 538.57 80.83 538.66C77.41 538.73 66.62 539 66.15 534.35C64.5 535.12 62.09 536.65 60.24 535.42C58.79 534.46 59.65 533.57 59.12 532.17C57.75 533.11 57.93 534.61 57.81 536.05C56.01 534.9 54.64 533.51 52.43 533.28C51.81 533.61 51.18 533.92 50.55 534.21C49.58 533.98 48.68 533.59 47.85 533.04C46.31 532.76 45.17 533.42 43.65 533.17C42.39 532.95 40.77 532.2 39.53 531.88C35.6 530.88 33.64 527.31 29.66 525.88C28.03 525.3 26.81 525.33 25.32 524.5C23.62 523.55 23.69 522.46 21.36 521.98C21.65 522.4 23.28 523.9 22.71 524.61C19.94 522.74 16.72 521.92 14.94 518.69C12.15 513.65 16.1 510.07 19.9 507C28 500.47 37.74 496.86 47.86 494.93C58.68 492.86 69.08 491.45 79.36 487.3C89.61 483.16 98.99 481.12 109.93 479.79C107.57 469.27 103.58 459.27 101.73 448.57C100.85 443.48 100.37 438.31 99.72 433.19C99.3 429.86 100.02 423.35 95.71 422.88C94.33 422.73 91.67 423.36 90.4 423.51C89.51 423.62 89.01 423.16 88.08 423.44C86.57 423.9 85.68 425.28 83.79 425.7C79.85 426.59 77.31 425.58 73.59 425.3C70.19 425.04 67.19 425.54 63.95 423.92C56.9 420.4 51.39 416.39 47.4 409.51C42.82 401.61 39.89 392.98 38.53 383.97C37.02 374.03 36.47 363.98 36.31 353.93C36.16 344.42 35.73 333.81 38.45 324.58C40.47 317.71 41.99 310.06 45.93 304.03C46.84 302.64 47.12 300.89 47.99 299.59C48.79 298.37 49.58 298.57 50.23 297.11C50.75 295.94 50.67 294.06 51.19 292.73C51.99 290.64 53.12 288.64 54.05 286.61C54.56 287.39 55.08 288.18 55.59 288.97C56.08 285.74 55.98 283.04 57.8 280.25C59.23 278.06 60.84 276.1 62.19 273.81C65.49 268.24 68.27 262.56 71.21 256.8C73.51 252.29 76.95 248.07 78.93 243.77C81.38 238.47 85.1 234.05 89 229.55C96.11 221.32 101.76 211.53 109.43 203.77C115.94 197.21 121.66 190.11 128.19 183.54C136.27 175.42 144.07 167.15 153.37 160.43C162.76 153.63 172.24 146.84 181.98 140.34C191.29 134.13 200.6 128.85 210.63 123.71C216.84 120.53 223.08 117.4 229.41 114.45C234.59 112.03 239.07 111.64 244.63 110.67C249.08 109.89 251.33 108.15 253.66 104.41C255.71 101.1 257.1 95.47 260.45 93.2C262.38 91.88 264.98 92.08 267.12 91.23C269.48 90.29 271.6 88.74 273.92 87.69C277.71 85.97 284.89 85.34 287.5 81.95C286.33 81.07 283.46 77.54 281.66 77.97C279.97 78.38 281.09 79.29 280.27 80.03C279.02 81.15 278.96 80.91 277.37 81.18C275 81.58 271.18 81.12 269.83 78.92C268.33 76.48 270.09 74.97 271.37 72.61C267.54 70.99 261.22 69.33 259.06 65.35C257.12 61.79 260.43 58.56 260.4 54.81C260.35 49.35 262.28 47.6 265.92 43.54C268.82 40.3 266.88 38.43 269.39 35.04C271.92 31.62 273.67 32.86 276.78 31.17C279.92 29.48 277.42 28.29 277.68 25.43C277.91 22.84 281.73 18.28 283.54 16.41C286.48 13.37 288.02 14.5 289.93 17.61C291.13 19.57 292.17 23.05 294.07 24.09C298.29 26.39 299.47 22.14 301.71 20.41C304.86 17.97 307.71 21.14 310.81 22.01C313.9 22.88 317.95 21.36 320.75 23.13C324.58 25.55 323.51 30.09 324.57 33.63C325.59 37 327.89 35.51 330.39 36.87C332.99 38.28 332.47 40.22 332.48 43C332.49 44.36 332.67 45.89 332.52 47.22C332.25 49.7 331.41 49.53 330.45 51.24C328.02 55.59 332.79 55.75 334.67 59.56C335.63 61.51 335.16 61.02 335.01 62.61C335.07 61.99 333.86 64.96 334.03 64.68C333.35 65.8 334.67 65.58 333.23 66.52C332.86 66.77 331.89 66.33 331.45 66.47C329.86 67 329.44 67.46 328.06 68.51C324.81 70.99 323.96 69.84 321.05 67.25C320.45 68.66 320.17 70.74 320.67 72.24C320.9 72.94 322.53 74.49 322.47 75.03C322.43 75.49 320.49 76.18 320.08 76.68C319.26 77.67 319.09 78.49 318.87 79.77C315.98 78.5 314.46 80.04 317.55 81.51C320.94 83.13 326.49 82.63 330.2 83.17C334.36 83.77 338.79 84.51 342.54 86.5C346.24 88.46 348.94 91.83 351.91 94.71C354.73 97.45 357.22 99.99 358.32 103.86C359.17 106.88 358.86 110.72 362.28 111.94C365.34 113.04 370.68 111.48 373.91 111.56C379.11 111.68 384.28 112.37 389.38 113.36C423.24 119.92 453.75 139.03 481.98 158.17C495.67 167.44 508.75 178.67 518.12 192.3C523.12 199.56 529.63 205.74 534.78 212.93C539.72 219.84 544.55 226.93 549.04 234.15C553.59 241.47 556.5 249.56 560.02 257.41C563.67 265.56 567.52 273.63 570.81 281.95C572.5 286.24 573.99 290.6 575.5 294.95C576.15 296.82 577.02 298.69 577.53 300.59C577.93 302.04 577.56 303.21 577.8 304.52C578.38 307.66 580.01 310.83 580.69 314.22C581.51 318.33 582.57 322.36 583.19 326.52C584.51 335.22 585.4 344.25 585.11 353.05C584.96 357.53 584.51 362 584.42 366.48C584.36 369.71 585.24 373.68 584.06 376.8C583.47 378.38 582.04 379.16 581.4 380.61C580.7 382.21 581.14 383.71 580.97 385.41C580.68 388.35 579.44 390.26 578.22 392.7C575.36 398.42 571.06 402.29 570.72 409.36C569.33 408.64 567.94 407.91 566.55 407.19C566.55 409.58 567.27 410.52 565.54 412.29C564.71 412.31 563.93 412.51 563.18 412.87C562.95 413.24 562.79 413.64 562.71 414.08C562.88 413.96 561.55 415.08 561.68 414.97C560.08 416.34 560.08 416.83 559.68 419.26C557.48 419.21 558.12 416.93 556.82 415.84C556.68 416.55 556.62 417.27 556.63 417.99C556.59 418.07 555.3 419.46 555.22 419.56C555 419.88 555.4 420.28 555.04 420.74C553.9 422.2 552.29 422.78 550.55 423.31C546.78 424.47 542.74 424.17 539 424.82C535.62 425.4 532.08 423.71 528.84 424.03C527.05 424.21 526.87 423.9 526.03 426.12C525.3 428.05 525.43 430.68 525.08 432.7C523.29 443.06 520.55 453.57 516.93 463.44C515.69 466.79 508.21 477.19 513.31 479.22C515.93 480.26 520.15 478.08 522.95 478.08C527.71 478.07 532.66 479.47 537.31 480.39C547.34 482.36 557.64 485.05 567.2 488.74C571.32 490.33 574.93 492.82 577.88 496.13C579.17 497.59 580.07 499.35 581.68 500.37C583.3 501.4 584.46 501.07 585.83 502.7C590.91 508.77 584.54 517.84 577.79 519.02C576.32 519.28 574.62 517.83 573.44 518.77C572.59 519.45 572.27 521.18 571.48 522.09C570.44 523.29 567.05 526.32 566.08 523.95C565.52 522.59 568.13 522.15 566.85 520.78C566.01 519.88 564.15 521.75 563.74 522.35C561.95 524.97 562.95 527.44 558.68 525.23C560.27 524.66 560.49 524.2 559.31 523.85C559.1 523.39 558.77 523.05 558.32 522.82C556.15 523.79 558.02 525.02 556.83 526.16C555.75 527.19 553.94 526.39 552.64 526.52C550.44 526.75 549.99 527.81 547.54 527C548.76 524.33 547.17 524.76 544.74 523.84C544.02 525.04 545.26 525.77 546 526.43C544.54 527.42 542.82 527.78 541.13 528.17C540.62 525.89 540.61 524.14 537.74 525.39C537.42 525.53 536.57 525.34 536.31 525.61C535.72 526.23 536.95 527.4 536.57 527.83C534.93 529.67 535.53 528.3 533.56 528.04C531.33 527.75 529.41 528.26 527.16 528.42C521.01 528.86 514.82 528.11 508.64 528.6C506.06 528.8 504.42 529.39 502.15 530.21C499.87 531.03 499.9 531.8 498.95 529.01C497.94 531.04 497.41 529.52 495.94 530.5C495.1 531.05 494.38 532.11 493.52 532.57C490.7 534.08 488.77 532.66 485.96 532.73C486.82 534.27 488.36 534.16 486.92 535.4C486.39 535.85 482.89 535.45 481.95 535.81C480.63 536.32 479.73 537.66 478.42 538.12C477.57 538.42 476.56 538.08 475.72 538.3C473.67 538.83 473.39 538.87 470.94 538.93C471.86 542.2 465.13 540.42 464.06 540.53C460.8 540.9 458.72 544.44 455.07 545.04C455.94 548.14 460.66 551.22 462.85 553.35C465.21 555.63 467.52 558.18 470.14 560.17C476.09 564.71 483.02 568.62 489.35 572.66C502.33 580.95 517.34 585.84 531.09 592.84C538.35 596.54 544.93 601.27 551.4 606.18C557.13 610.52 563.38 613.77 569.05 618.11C581.57 627.68 594.82 637.59 604.2 650.33C616.34 666.84 599.7 678.79 585.1 683.75ZM353.84 530.17C357.81 527.86 358.68 522.12 360.24 518.16C358.87 519.02 351.17 524.85 352.6 520C353.63 516.48 362.94 512.2 365.77 511.03C368.28 509.99 371.7 508.8 374.4 509.74C377.37 510.77 376.88 513.06 378.74 514.82C382.42 518.32 387.94 511.08 390.74 508.42C393.39 505.89 396.61 503.67 398.97 501.03C400.97 498.78 402.47 496.79 404.96 494.94C405.54 494.5 409.58 492.26 409 490.95C408.3 489.38 404.57 492.14 403.54 492.01C396.78 491.16 400.4 480.92 399.62 476.74C398.4 470.19 391.78 462.79 387.55 457.89C384.17 461.95 379.31 466.26 373.86 466.98C368.74 467.65 365.11 464.76 365.56 459.47C365.74 457.34 368.05 453.12 365 455.27C364.19 455.85 360.92 462.56 359.81 462.07C355.9 460.33 367.54 449.38 368.64 448.42C370.73 446.58 375.77 443.53 375.32 440.33C375.01 438.1 371.2 434.81 369.91 433.12C358.32 417.91 345.31 403.88 333.01 389.27C330.23 385.98 326.28 376.64 321.33 377.91C318.68 378.6 316.14 381.37 313.59 382.49C310.32 383.94 306.95 384.58 303.41 383.78C297.09 382.34 292.93 376.81 293.3 370.32C293.52 366.56 295.41 363.68 296.78 360.3C298.72 355.53 297.94 354.84 302.29 352.16C295.11 343.27 285.98 335.93 277.12 328.79C268.32 321.7 259.21 314.55 249.26 309.16C244.35 306.5 239.8 303.47 235.23 300.27C232.42 298.31 229.17 294.43 225.85 296.72C224.45 297.68 223.54 299.77 222.4 301.06C220.85 302.82 219.09 304.4 217.34 305.94C214.05 308.84 210.56 311.6 206.96 314.1C200.4 318.64 190.65 323.91 182.65 319.77C175.62 316.13 174.85 306.98 176.17 300.06C177.04 295.5 178.93 291.2 181.29 287.23C182.59 285.06 187.21 280.95 187.52 278.5C188.05 274.33 170.77 272.85 168.26 275.31C166.39 277.15 166.58 281.08 165.52 283.4C163.94 286.83 160.74 290.3 157.32 291.93C153.56 293.74 148.69 293.39 145.91 289.99C143.47 286.99 143.71 282.69 143.35 279.07C133.03 279.84 126.68 294.06 123.8 302.15C126.93 303.23 130.57 302.49 133.39 304.52C132.52 304.66 131.65 304.8 130.78 304.94C133.23 314.35 127.37 321 120.18 326.47C117.17 328.75 114.56 329.93 113.75 333.81C112.74 338.59 112.85 343.85 112.31 348.71C111.74 353.86 111.3 358.84 111.15 364.02C111.08 366.24 109.85 373.73 111.77 375.36C113.36 376.71 120.25 376.38 122.64 376.89C126.41 377.7 130.99 376.37 133.9 379.1C132.11 379.39 130.33 379.69 128.54 379.98C134.42 386.6 131.95 395.07 127.68 401.79C125.87 404.64 123.75 407.39 121.27 409.69C119.09 411.72 115.94 413.35 114.82 416.27C112.51 422.32 117.69 432.8 119.05 438.67C121.05 447.29 122.62 456.01 125.9 464.28C130.68 458.97 140.32 452.53 145.96 460.35C142.66 459.43 138.78 457.61 135.65 460.03C145.81 460.59 152.34 468.36 148.53 478.35C147.18 481.89 140.37 488.26 141.06 491.7C141.46 493.69 145.08 496.12 146.52 497.55C148.43 499.44 150.23 501.58 152.58 502.94C156.37 505.12 163.41 505.95 167.6 504.41C169.65 503.66 169.22 504.4 170.05 501.96C170.95 499.28 170.52 497.31 172.3 494.81C174.66 491.5 180.16 488.15 180.77 483.89C181.1 481.64 179.57 479.38 179.27 477.21C178.85 474.25 179.5 471.16 179.5 468.19C178.11 468.93 165.87 476.98 165.61 476.77C163.36 474.94 170.76 469.57 172.12 468.74C175.95 466.4 179.85 465.54 182.84 461.98C184.9 459.51 187.45 455.07 190.63 458.95C187.59 458.64 186.1 460.24 184.86 462.79C190.41 462.79 194.73 463.97 198.21 459.22C202.12 453.88 205.49 448.32 209.99 443.44C213.44 439.7 217.44 436.69 214.56 431.48C212.23 427.26 208.06 423.81 205.22 419.92C198.78 411.14 193.32 401.66 187.04 392.76C184.36 388.96 182.6 384.17 177.62 383.99C173.56 383.84 170.36 383.55 169.35 378.81C168.68 375.62 171 370.71 168.31 368.14C166.33 366.25 158.55 366.16 156.04 366.97C152.51 368.09 150.1 372.76 145.91 371.86C142.11 371.05 142.15 366.39 139.17 364.49C137.05 363.14 133.27 363.62 131.66 361.35C129.41 358.16 132.92 356.96 135.55 356.4C139.66 355.53 141.52 355.84 143.79 351.97C145.56 348.95 149.2 345.23 148.27 341.54C147.35 337.88 143.13 335.84 142.1 332.26C140.67 327.33 144.38 328.59 147.33 329.41C149.65 330.05 150.28 329.18 152.55 329.38C154.53 329.56 157.41 331.47 158.88 332.7C160.89 334.39 160.44 335.51 161.62 337.46C162.12 338.29 161.46 340.68 163.1 338.46C164.06 339.72 165.48 340.47 166.38 341.42C167.1 342.19 166.37 339.73 167.7 341.88C168.32 342.88 166.84 347.78 169.64 343.29C173.08 346.26 173.23 349.25 175.3 353.07C177.74 349.78 188.2 333.67 192.75 340.31C188.69 337.71 179.93 347.74 178.98 351.58C177.23 358.7 185.8 347.53 187.25 346.38C194.38 340.69 205.73 344.98 205.69 354.56C205.67 359.54 202.34 364.49 199.12 368.05C196.37 371.08 194.38 371.7 195.75 375.85C192.38 375.35 196.11 379.18 196.86 379.93C198.84 381.89 199.68 383.24 201.05 385.65C201.79 386.95 202.82 388.28 203.89 389.33C204.79 390.22 207.24 391.36 207.85 392.34C209.12 394.41 207.23 398.9 211.72 397.1C214.21 396.1 216.1 390.88 218.13 388.93C221.08 386.1 224.82 383.72 228.76 382.61C237.87 380.03 244.61 386.59 252.82 389.03C274.94 395.6 261.73 417.11 247.79 425.23C244.78 426.98 241.81 427.94 238.56 428.97C234.95 430.11 233.85 430.65 235.92 433.83C237.9 436.87 240.91 439.53 243.14 442.41C244.31 443.91 244.49 445.58 245.42 447.01C245.53 447.93 245.92 448.71 246.58 449.35C247.46 449.59 248.33 449.84 249.21 450.09C250.88 451.7 250.2 454.79 251.21 456.56C252.35 458.55 254.54 458.31 255.86 459.91C256.82 461.08 256.75 463.09 257.52 464.44C259.21 467.39 261.38 469.79 263.76 472.29C265.29 473.89 264.6 474.34 265.31 475.65C264.74 476.32 264.91 476.87 265.8 477.32C266.54 477.75 267.21 478.27 267.81 478.88C268.5 479.95 268.28 481.91 268.95 482.76C269.88 483.94 271.21 482.39 272.32 483.71C273.1 484.65 272.23 486.77 272.64 487.97C273.29 489.85 275.23 491.26 276.47 492.72C278.92 495.58 278.67 498.51 280.62 501.41C282.91 504.8 284.52 507.02 286.81 503.03C289.08 499.08 290.46 495.58 293.96 492.38C297.02 489.58 300.7 487.29 304.41 485.46C312.25 481.57 324.02 483.59 327.44 492.9C330.46 501.15 325.3 510.73 320.49 517.12C314.44 525.16 306.61 530.09 297.43 533.9C298.6 535.55 301.55 541.88 303.59 542.56C305.65 543.25 311.35 540.17 313.46 539.74C318.65 538.69 323.44 538.82 328.62 537.27C333.18 535.9 337.63 535.72 342.17 534.33C345.79 533.21 350.54 532.09 353.84 530.17ZM120.1 271.03C121.49 269.25 121.89 268.36 123.66 267.01C124.99 265.99 126.82 264.83 128.3 264.01C131.36 262.32 135.03 262.24 138.36 261.23C142.56 259.94 146.68 258.48 151.05 257.86C155.07 257.29 159.11 257.78 163.16 257.52C172.17 256.94 179.97 259.55 188.64 261.76C185.73 252.18 195.04 246.69 201.21 240.84C207.93 234.47 215.27 228.68 221.14 221.47C211.49 220.96 200.18 227.37 191.49 230.97C186.12 233.2 180.81 235.4 175.68 238.16C173.13 239.52 166.28 245.12 163.12 243.39C155.27 239.07 169.85 228.96 172.51 226.74C180.61 219.99 188.61 212.32 194.88 203.81C188.05 205.41 181.23 207 174.45 208.81C168.9 210.29 163.43 212.97 157.9 214.21C156.12 214.61 153.77 213.92 152.15 214.68C149.79 215.79 149.09 218.51 146.19 219.33C144.59 219.79 143.69 219.63 142.42 220.36C140.73 221.34 139.1 223.24 137.38 224.4C135 226 133.11 226.08 130.67 227.2C128.91 228.01 127.48 230.19 125.98 231.42C123.67 233.3 121.43 234.51 118.89 235.93C116.75 237.13 116.73 238.61 115.02 240C114.14 240.71 112.67 240.85 111.77 241.53C110.72 242.34 110.78 243.26 109.47 244.11C107.87 245.14 105.5 244.77 104.05 246.21C103.18 247.08 103.31 248.17 102.71 249.24C102.41 249.77 101.34 249.89 100.99 250.42C99.43 252.78 100.24 254.04 96.97 252.2C97.38 253.64 95.47 257.54 94.21 258.25C92.55 259.17 90.97 257.3 89.91 257.91C88.61 258.66 89.88 261.39 89.02 262.54C88.27 263.54 86.12 263.01 85.27 263.88C83.92 265.26 84.46 266.57 84.98 268.2C81.37 268.93 84.03 270.23 82.25 272.85C80.89 274.86 78.77 276.21 77.44 278.54C75.94 281.17 74.51 283.06 72.4 285.19C71.69 285.91 70.58 286.51 70.2 287.52C69.51 289.39 70.8 289.64 70.76 291.26C70.67 294.58 69.75 293.73 67.64 295.75C65.96 297.34 65.8 299.35 65.15 301.43C64.92 302.19 64.06 302.53 63.96 303.55C63.89 304.3 65.45 304.19 65.3 305.19C65.06 306.7 62.88 308 61.99 309.14C60.71 310.8 58.89 313.25 58 315.14C57 317.26 57.26 319.61 56.68 321.83C56.45 322.7 55.57 323.11 55.59 324.05C55.61 324.7 56.62 324.92 56.6 325.58C56.51 327.96 55.19 330.05 54.71 332.36C54.1 335.21 54.47 337.57 55.14 340.31C55.54 341.94 56.9 344.95 56.72 346.48C56.53 348.08 56.2 347.27 55.62 348.56C55.35 349.15 55.06 350.2 54.74 350.9C53.64 353.38 52.99 354.49 56.04 355.84C55.32 356.39 52.6 356.57 53.76 357.92C54.34 358.62 56.7 357.65 57.47 357.52C57.24 358.29 56.74 358.84 55.99 359.16C58.42 360.83 59.67 360.58 60.58 363.71C61.36 366.4 61.52 369.47 61.63 372.26C61.73 374.72 61.36 377.23 61.55 379.69C61.77 382.51 63.01 382.83 64.28 384.87C66.77 388.83 67.96 394.73 72.59 397.5C73.12 396.71 73.62 396.64 74.1 397.29C74.52 397.58 74.9 397.92 75.25 398.29C76.4 399.01 77.11 400.39 78.22 401.2C80.49 402.87 81.86 402.13 81.27 405.52C85.38 403.73 94.84 415.98 96.97 411.52C97.52 410.38 96.64 407.8 96.49 406.59C96.11 403.58 95.93 400.55 95.76 397.53C95.44 391.45 95.37 385.36 95.24 379.28C94.98 367.34 94.98 355.45 95.61 343.52C95.89 338.03 96.67 332.62 97.59 327.21C98.37 322.7 99.97 317.82 100.28 313.3C99 314.21 97.75 315.16 96.16 315.47C96.11 313.18 97.62 312.82 98.89 311.37C100.41 309.65 101.36 308.15 102.18 305.97C104.02 301.04 105.52 296 107.39 291.08C110.34 283.34 115.14 277.38 120.1 271.03ZM159.03 356.27C157.24 353.87 154.34 346.48 150.59 348.46C149.74 348.92 147.31 351.65 146.58 352.43C145.64 353.43 143.45 354.3 146.18 355.13C150.32 356.38 154.78 355.89 159.03 356.27ZM170.97 371.83C170.81 375.12 170.24 381.6 175.42 380.73C179.46 380.04 172.06 373.17 170.97 371.83ZM203.19 352.3C202.07 347.94 196.81 347.12 193.03 347.72C189.13 348.34 184.23 350.69 183.24 354.9C182.1 359.67 186.28 370.59 192.6 369.52C196.81 368.81 204.18 356.15 203.19 352.3ZM376.53 518.69C377.69 515.88 375.71 513.84 373.08 513.48C366.21 512.52 360.85 521.19 359.9 526.93C363.23 526.03 366.21 524.19 369.33 522.77C371.55 521.77 375.48 521.25 376.53 518.69ZM317.47 485.48C307.62 480.74 292.04 495.88 289.4 504.37C296.89 495.74 305.99 487.88 317.47 485.48ZM319.36 513.16C323.41 507.66 331.46 491.71 319.58 489.91C310.24 488.5 300.03 496.92 294.23 503.08C292.39 505.04 288.93 508.06 288.4 510.77C287.95 513.09 289.49 514.61 290.25 516.7C291.6 520.33 291.39 526.55 295.23 528.69C302.62 532.81 315.91 517.84 319.36 513.16ZM262.44 509.39C259.46 505.47 257.31 501.04 254.35 497.05C250.65 501.93 246.12 511.02 239.09 511.41C234.79 511.65 232.25 508.12 231.34 504.34C231.14 503.5 231.29 496.16 230.61 495.97C229.45 495.67 224.33 506.36 223.48 508.06C220.91 513.23 224.68 513.1 229.17 513.94C241.85 516.3 254.66 517.45 267.51 518.31C268.83 515.62 263.87 511.26 262.44 509.39ZM183.8 467.43C179.75 470.1 180.95 478.39 182.66 482C185.67 477.51 190.01 472.81 192.16 467.86C193.53 464.73 185.33 466.42 183.8 467.43ZM238.72 476.94C237.98 478.8 237.33 480.69 236.73 482.59C240.62 481.02 239.98 480.9 238.72 476.94ZM234.14 490.99C232.62 494.61 231.49 503.46 234.74 506.67C238.64 510.53 244.59 504.96 247.28 502.06C248.9 500.3 251.18 497.73 251.49 495.21C251.9 491.89 249.3 489.29 247.74 486.65C244.02 480.35 236.3 485.82 234.14 490.99ZM240.1 481.23C240.13 481.22 240.15 481.2 240.17 481.18C240.15 481.2 240.13 481.21 240.1 481.23ZM240.17 481.18C243.8 478.92 242.37 477.97 240.86 474.53C239.17 475.09 240.89 480.55 240.17 481.18ZM215.67 406.57C216.12 407.3 217.81 407.27 218.42 408.02C219.71 409.57 220.38 411.86 221.77 413.57C223.15 415.29 223.68 417.11 224.81 418.98C225.52 420.16 227.74 424.28 228.79 424.91C229.98 425.65 229.56 424.02 231.01 424.5C231.59 424.69 232.16 425.6 232.65 425.69C235.25 426.21 236.87 426.1 239.52 425.06C245.23 422.83 250.46 419.59 254.82 415.25C262.17 407.95 267.58 396.7 254.56 392.34C249.81 390.75 244.63 390.64 239.85 392.15C234.03 393.99 229.46 399.82 223.66 400.94C223.76 393.8 239.76 388.65 244.98 387.82C239.4 382.2 230.83 383.69 224.6 387.28C221.64 388.98 218.91 391.23 216.84 393.96C215.8 395.32 214.43 397.17 214.12 398.89C213.64 401.53 214.97 401.44 215.55 403.57C215.85 404.68 214.99 405.48 215.67 406.57ZM191.59 492.06C189.07 493.7 187.74 496.74 186.26 499.24C190.11 501.36 198.21 508.88 202.78 507.28C207.6 505.6 211.39 498.05 217.01 503.65C212.32 502.89 208.15 505.17 205.76 509.2C207.83 508.07 210.7 505.34 213.23 506.77C215.22 507.91 214.88 511.23 217.92 511.26C221.76 511.29 223.24 504.98 224.5 502.32C227.61 495.72 231.34 489.51 234.18 482.76C235.38 479.9 237.43 476.68 238.07 473.65C238.8 470.17 236.32 467.27 234.66 464.38C232.62 460.84 230.44 457.34 228.52 453.73C227.73 452.24 226.83 448.93 225.31 448.05C220.87 445.49 219.53 454.44 218.39 457.16C215.4 464.25 210.45 468.4 209.66 476.29C209.03 482.53 205.67 487.67 199.56 489.82C196.94 490.74 193.99 490.5 191.59 492.06ZM207.49 473.45C203.58 477.95 198.52 482.31 195.56 487.45C202.44 485.89 207.74 480.84 207.49 473.45ZM247.42 545C246.46 541.05 243.55 540.36 244.73 535.97C233.23 534.3 222.04 532.05 210.75 529.3C205.92 528.13 201.21 526.39 196.84 524C192.51 521.62 189.32 518.17 185.37 515.33C182.92 513.57 178.14 512.05 175.51 514.57C174.38 515.66 174.63 517.14 173.88 518.38C173.09 519.68 171.85 520.61 170.96 521.87C168.4 525.49 167.52 530.26 165.63 534.25C163.6 538.5 161.27 542.59 158.78 546.58C148.16 563.64 135.34 579.77 120.95 593.79C113.74 600.81 105.56 606.74 97.74 613.03C89.56 619.6 81.26 626 72.35 631.56C64.04 636.75 56.95 641.66 49.84 648.42C42.11 655.78 35.53 664.19 28.91 672.54C32.38 673.59 39.05 677.02 42.64 676.78C45.39 676.59 45.83 674.11 47.25 671.88C51.55 665.11 57.78 659.27 64.26 654.63C65.75 653.57 69.58 649.64 71.5 649.87C76.17 650.44 74.17 656.58 72.64 658.91C67.91 666.11 61.22 672.77 55.23 678.91C59.75 679.46 64.23 680.28 68.72 681.05C72.94 681.78 74 682.06 76.3 678.41C80.62 671.56 84.96 665.31 91.54 660.39C94.02 658.53 97.81 655.42 101.16 656.9C104.15 658.22 104.21 661.71 102.97 664.25C101.23 667.81 96.87 670.59 94.03 673.16C90.65 676.21 87.3 679.29 83.92 682.33C88.86 683.59 93.96 686.61 98.01 682.12C101.46 678.29 103.97 674.82 108.52 671.94C111.51 670.04 116.69 667.85 116.17 673.8C115.76 678.37 110.45 681.55 107.86 684.86C116.93 688.98 127.1 681.74 134.64 677.51C138.32 675.44 141.81 673.73 145.14 671.09C148.29 668.6 151.81 667.37 154.59 664.56C157.55 661.57 161.2 659.73 164.64 657.35C168.56 654.65 172.18 651.25 176.59 649.33C180.26 647.74 183.09 645.55 186.67 643.75C190.13 642.02 193.89 641.05 197.36 639.42C201.25 637.6 204.55 635.28 208.63 633.75C213.18 632.05 217.83 630.66 222.43 629.12C228.69 627.04 236.76 625.42 240.91 619.79C243.54 616.21 243.29 612.11 243.79 607.92C244.38 602.98 245.26 598.21 245.41 593.2C245.73 582.36 246.61 571.54 246.94 560.69C247.09 555.81 248.59 549.79 247.42 545ZM153.66 532.88C152.46 535.81 150.57 537.71 149.9 540.93C151.79 538.52 155.05 536.43 153.66 532.88ZM142.98 464.65C138.75 462.56 130.97 463.41 128.77 468.22C127.46 471.07 129.36 473.58 130.89 475.91C133.41 479.73 135.69 483.71 138.25 487.51C143.66 483.04 152.58 469.42 142.98 464.65ZM113.99 410.34C120.28 406.32 128.52 397.74 129.52 390.02C130.17 384.96 126.32 381.16 121.52 383.94C114.8 387.84 111.96 393.11 112.84 400.54C113.23 403.81 113.58 407.08 113.99 410.34ZM111.93 388.13C115.09 385.37 118.25 382.61 121.41 379.85C119.11 379.71 113.8 377.7 111.82 379.28C109.99 380.73 111.72 386.24 111.93 388.13ZM115.43 325.27C120.06 322.58 138.47 305.42 122.48 307.5C118.04 308.08 116.18 321.62 115.43 325.27ZM153.39 275.99C148.99 276.5 145.97 276.07 146.04 281.44C146.21 295.85 162.91 286.25 165.06 277.45C166.28 272.43 155.9 275.69 153.39 275.99ZM143.17 365.88C145.24 370.07 148.54 368.94 152.08 366.98C151.68 364.64 144.7 365.57 143.17 365.88ZM79.43 407.94C79.74 409.19 79.99 410.2 80.26 411.29C82.19 409.64 82.19 409.64 79.43 407.94ZM58.27 373.61C58.05 374.03 56.69 375.99 57.21 376.5C57.62 376.9 59.05 376.75 59.39 376.28C60.05 375.38 58.81 374.02 58.27 373.61ZM57.1 363.32C57.05 362.13 55.03 360.76 54.58 359.51C54.21 360.85 53.85 362.2 53.48 363.54C53.88 363.71 57.12 364.1 57.1 363.32ZM58.25 373.53C58.15 369.93 57.82 367.47 54.65 365.38C55 368.6 54.46 372.27 58.25 373.53ZM107.08 225C108.07 226.88 109.43 224.19 109.75 223.32C109.09 223.57 106.76 224.39 107.08 225ZM109.79 223.21C111.41 224.19 113.5 222.99 114.86 222.17C118.5 219.95 121.22 217.39 125.2 215.59C129.72 213.55 133.49 210.47 138.18 208.71C142.72 207.01 147.48 205.97 151.92 204.01C155.46 202.46 159.69 203.16 162.68 200.8C166.2 198.02 163.82 196.11 163.95 192.32C164.27 183.53 164.2 172.58 170.14 165.55C168.33 165.34 167.93 167.23 166.53 167.88C165.42 168.39 163.73 167.43 162.85 168.62C162.08 169.67 163 170.77 161.94 172C161.32 172.73 159.65 172.94 158.84 173.44C155.2 175.64 152.17 179.24 148.65 181.7C145.3 184.04 143.84 186.95 141.84 190.47C141.33 189.79 140.83 189.1 140.32 188.41C140.05 188.72 139.83 190.39 139.55 190.81C139.32 191.14 138.15 191.14 137.78 191.53C136.93 192.42 136.46 193.65 135.54 194.54C134.77 195.27 133.82 195.39 133.17 196.3C131.83 198.16 131.95 199.37 130.33 201.07C128.92 202.54 127.58 203.6 125.84 204.47C123.33 205.73 122.84 206.05 121.28 208.79C119.97 211.09 118.8 213.35 116.73 215.07C115.98 215.69 114.65 216.11 114.04 216.8C113.7 217.18 112.85 218.89 112.79 218.94C112.5 219.18 112.71 219.58 112.09 219.98C111.2 220.55 109.62 219.68 108.84 220.38C107.52 221.57 108.78 222.59 109.79 223.21ZM171.64 165.25C174.6 167.86 178.41 162.48 181.38 160.97C186.23 158.52 191.65 156.92 196.99 155.95C208.13 153.92 218.88 157.23 229.89 156.04C220.64 151.41 219.27 139.67 221.1 130.54C220.51 131.15 219.21 130.43 218.62 131.08C218.15 131.6 219.66 132.29 219.43 132.56C218.4 133.72 216.93 134.45 215.28 135.37C215.19 134.98 215.09 134.59 214.97 134.2C214.89 134.17 212.71 137.76 212.47 137.96C210.9 139.31 209.28 138.77 207.65 139.76C206.71 140.33 206.45 141.22 205.65 141.83C202.92 143.9 198.17 146.28 195.39 146.96C192.89 147.58 190.07 150.81 189.34 153.71C187.25 152.46 184.47 155.61 182.6 156.9C181.35 157.75 176.27 160.38 176.01 161.38C174.61 162.71 172.82 163.68 171.64 165.25ZM235.23 147.08C240.89 149.14 246.96 149.5 245.58 156.84C247.22 157.08 248.86 157.33 250.51 157.57C250.17 154.43 250.98 150.07 248.86 147.4C246.69 144.66 241.49 144.24 238.46 142.73C235.12 141.07 233.02 136.45 238.58 136.58C242.49 136.67 247.1 139.76 249.22 142.87C250.33 137.16 253.44 132.02 246.08 129.91C239.79 128.1 233.54 130.1 229.43 135.13C224.74 140.86 229.51 144.99 235.23 147.08ZM241 119.96C243.29 121.26 245.58 122.57 247.87 123.87L247.87 117.06C245.58 118.03 243.29 118.99 241 119.96ZM229.4 167.41C217.59 167.25 205.48 165.74 193.72 167.27C193.58 169.22 212.25 170.94 214.61 171.4C222.7 172.98 230.37 175.25 238.23 177.65C245.89 179.99 253.83 181.21 261.61 183.08C269.57 184.99 277.47 187.02 285.53 188.48C290.68 189.42 296.55 190.48 299.03 184.36C299.92 182.18 299.55 182.3 297.05 181.18C294.44 180.01 291.52 179.64 288.85 178.6C281.5 175.75 273.91 173.55 266.27 171.48C254.36 168.25 241.68 167.57 229.4 167.41ZM263.09 160.33C269.58 162.54 277.02 164.29 283.75 165.48C280.46 162.38 276.98 152.45 282.96 149.91C286.97 148.2 288.65 154.28 289.25 157.2C290.04 161.04 286.3 166.76 289.48 168.94C291.19 170.12 294.32 169.88 296.27 170.52C299.61 171.62 302.5 173.84 305.35 175.8C307.98 177.61 311.16 180.35 314.43 180.78C317.86 181.22 320.05 178.81 322.56 176.84C329 171.78 336.4 167.83 344.11 165.04C346.27 164.26 350.07 164.21 351.86 162.8C354.4 160.8 353.43 156.78 353.17 153.95C352.4 145.58 351.38 136.85 348.65 128.87C344.17 132.32 340.04 134.3 335.1 130.25C330.67 126.62 330.81 123.58 326.03 128.81C322.73 132.43 319.6 135.8 314.35 134.65C312.13 134.17 309.19 133.29 307.29 132.04C305.77 131.04 304.66 128.31 303.16 127.63C300 126.21 295.17 133.11 292.16 134.79C287.23 137.56 282.84 137.7 278.2 134.54C272.85 130.9 271.91 132.92 267.68 136.8C263.27 140.84 260.12 139.55 256.62 135.23C256.1 139.41 256.04 143.63 255.89 147.83C255.71 152.96 258.08 158.62 263.09 160.33ZM335.07 179.42C333.04 180.14 327 180.99 326.11 183.26C324.16 188.2 333.7 186.01 335.41 185.52C357.86 179.13 380.43 171.94 403.39 167.53C414.91 165.31 426.24 162.91 437.71 160.39C443.5 159.12 445.41 161.94 446.86 167.34C448.09 171.91 448.57 176.72 448.97 181.41C449.35 185.84 448.11 193.54 450.08 197.49C451.21 199.74 452.4 199.43 454.53 200.04C456.76 200.69 456.35 201.03 457.74 202.07C460.29 203.98 462.25 203.49 465.37 204.44C468.94 205.53 472.67 209.26 475.76 211.33C479.36 213.74 482.66 216.21 486.4 218.21C487.93 219.03 489.66 220.05 491.11 221.01C491.63 221.36 491.63 222.42 492.23 222.73C492.52 222.87 493.95 222.52 493.95 222.52C494.89 223.32 494.95 224.6 495.88 225.27C496.74 225.88 497.73 225.51 498.59 225.92C500.56 226.87 504.48 229.32 504.31 231.94C508.46 227.94 513.8 238.31 517.09 239.39C520.19 240.4 519.99 238.87 522.46 241.67C524.93 244.46 528.17 246.49 530.52 249.37C532.64 251.98 533.21 253.01 535.78 255.2C538.05 257.13 538.89 260.22 540.82 262.21C541.82 263.24 543.17 263.31 544.15 264.24C545.07 265.11 545.24 266.94 545.76 268.05C547.01 270.71 548.54 273.46 551.91 273.19C551.47 271.13 551.03 269.93 550.22 268.07C549.19 265.71 548.88 267.8 548.75 265.09C548.65 262.85 550.33 263.41 548.42 261.2C547.27 259.87 545.95 258.9 545.62 261.43C544.17 259.21 544.36 256.86 544.08 254.41C544.02 253.92 543.54 251.22 543.89 250.86C537.94 250.64 536.85 241.95 533.66 238C531.66 235.52 529.36 233.35 527.63 230.64C525.82 227.8 524.64 224.78 522.46 222.16C520.5 219.8 519.51 217.25 517.47 215.23C515.58 213.35 514.25 211.38 512.45 209.08C511.79 208.23 511.12 206.82 510.31 206.2C509.6 205.66 509.04 206.46 508.61 206.12C508.02 205.66 504.54 203.16 506.79 202.84C506.7 202.69 505.53 201.96 505.54 202.04C504.76 198.74 504.38 198.88 502.08 196.92C499.61 194.82 497.45 193.87 496.99 190.91C494.82 193.67 490.65 185.56 496.99 190.9C496.67 189.06 493.29 189.03 492.48 188.25C491.4 187.22 491.27 185.48 490.87 184.14C488.7 185.95 488.68 184.88 487.18 183.14C485.64 181.36 484.77 181.47 483.1 180.45C481.39 179.4 482.11 179.98 481.57 177.51C481.19 175.78 481.06 174.86 479.52 173.67C479.35 175.07 479.17 176.47 479 177.87C478.22 176.45 476.59 176.22 475.64 175.03C475.14 174.4 474.91 172.66 474.46 172.3C473.94 171.88 472.87 171.58 472.27 171.16C471.97 170.95 471.03 169.67 470.64 169.35C470.19 168.98 469.26 169.7 468.68 169.07C467.86 168.16 468.3 166.88 468.3 165.82C463.43 166.94 458.98 160.76 456.93 156.86C456.63 157.99 456.33 159.12 456.03 160.25C455.34 159.47 454.72 157.84 453.8 157.31C452.45 156.54 452.62 157.17 451.14 156.82C448.29 156.16 447.4 150.09 445.1 153.71C443.92 149.86 444.01 151.21 440.77 150.08C438.9 149.43 436.82 147.87 435.48 146.39C434.76 145.59 434 143.38 432.56 143.05C432.58 143.06 431.09 142.7 431.32 142.79C431.66 142.93 430.24 143.52 430.48 143.77C427.99 142.57 425.45 140.54 423.6 138.69C423.02 138.12 421.67 137.18 421.02 137.13C419.95 137.03 419.63 138.36 418.37 137.93C416.68 137.35 417.47 135.95 416.92 134.89C416.4 133.9 416.53 131.89 414.97 131.52C414.11 131.32 414.24 132.01 413.68 132.05C413.24 132.09 412.33 133.38 411.49 133.52C409.6 133.84 409.69 132.98 408.66 132.31C407.36 131.47 408.98 131.32 406.93 130.74C406.41 130.59 405.31 131.63 404.85 131.51C403.9 131.28 403.66 130.19 402.89 129.87C401.64 129.36 400.74 129.49 399.33 129.28C392.59 128.28 385.66 124.33 378.96 122.53C382.37 129.91 385.66 137.51 382.4 145.59C381.14 148.69 379.15 151.49 376.22 153.18C373.83 154.57 370.34 154.92 368.89 157.59C382.62 152.81 395.91 151.16 410.41 151.72C415.82 151.93 428.02 150.16 432.03 154.81C434.92 158.17 432.16 161.09 428.54 161.05C422.25 161 416.1 160.8 409.74 161.11C395.38 161.82 382.46 164.43 368.66 168.31C357.31 171.49 346.16 175.49 335.07 179.42ZM359.77 155.52L359.77 160.18C361.45 159.54 363.12 158.9 364.8 158.26C363.12 157.35 361.45 156.43 359.77 155.52ZM355.53 131.02C356.41 133.68 357.3 136.34 358.18 139.01C360.41 134.84 370.41 135.32 366.72 140.56C365.26 142.64 362.17 142.5 360.59 144.46C358.76 146.71 359.6 149.85 359.79 152.46C365.57 149.58 376.06 146.1 377.42 138.74C378.21 134.38 375.02 130.09 370.66 129.71C368.3 129.51 365.61 130.36 363.49 131.35C362.25 131.93 359.29 134.8 357.83 133.61C356.73 132.71 357.66 130.67 355.53 131.02ZM361.91 123.23C363.99 121.89 366.07 120.54 368.15 119.2C364.39 117.96 360.87 118.57 361.91 123.23ZM557.14 324.12C552.43 316.46 548.79 308.05 544.41 300.26C542.4 296.69 539.02 293.81 536.7 290.35C533.49 285.57 530.35 280.66 526.53 276.34C519.77 268.68 511.52 261.82 503.57 255.44C496.66 249.89 489.03 245.29 481.84 240.21C474.23 234.84 465.16 230.25 458.38 223.84C457.45 222.95 456.88 221.77 455.92 220.92C455.28 220.66 454.63 220.44 453.97 220.24C453.38 219.48 452.81 218.71 452.25 217.92C451.17 217.21 449.01 217.15 447.77 216.77C446.03 216.24 444.44 215.19 442.89 214.41C440.9 213.41 440.6 213 438.08 212.64C435.71 212.3 433.75 211.67 431.61 210.57C427.52 208.46 423.98 205.36 419.61 203.78C420.83 207.21 424.97 208.84 427.61 211.16C431.51 214.61 434.99 218.37 438.54 222.17C440.83 224.62 456.68 236.58 449.78 240.69C446.6 242.59 441.28 238.63 438.64 237.17C433.95 234.57 429.01 232.5 424.02 230.54C413.1 226.26 401.86 222.46 390.62 219.14C394.47 225.48 402.38 229.87 408.37 233.99C414 237.87 420.14 241.11 425.43 245.48C428.53 248.04 437 255.66 431.43 260.1C427.78 263.01 420.64 258.16 416.99 256.96C409.65 254.55 402.46 253.13 394.8 252.23C391.83 251.88 390.58 250.87 391.02 253.98C391.27 255.78 393.24 257.94 394.21 259.33C396.97 263.31 399.54 267.6 402.65 271.3C405.08 274.2 410.72 280.66 414.52 281.63C418.46 282.64 425.83 277.07 429.37 275.41C434.58 272.96 440.42 271.83 445.44 269.1C450.48 266.35 456.68 264.55 462.31 262.97C468.35 261.28 473.95 262.01 479.97 262.88C484.18 263.49 487.48 263.2 491.35 265.33C493.86 266.71 496.12 268.59 498.38 270.34C502.73 273.72 506.85 277.34 510.21 281.75C518.45 292.61 522.93 307.54 525.2 320.82C527.75 335.72 527.59 350.8 527.72 365.87C527.86 380.9 526.59 396.52 528.33 411.46C530.94 407.97 533.94 409.92 537.1 409.02C539.95 408.22 543.02 406.04 545.96 405.05C552.49 402.87 559.41 398.39 564.24 393.2C569.35 387.7 571.88 380.07 571.56 372.58C571.42 369.15 570.05 366 569.6 362.62C569 358.17 569.27 353.66 568.93 349.19C568.2 339.69 561.95 331.93 557.14 324.12ZM552.47 279.41C554.43 279.54 555.11 282.65 557.84 281.35C554.79 277.98 554.79 277.98 552.47 279.41ZM515.79 419.61C511.13 421.64 505.89 425.29 500.62 423.18C496.05 421.35 495.07 416.55 494.09 412.22C492.47 414.3 491.89 417.11 489.94 418.96C488.09 415.95 491.11 412.19 492.54 409.62C494.69 405.79 496.46 401.76 498.44 397.84C502.15 390.51 507.22 384.95 513.31 379.53C519.39 374.11 516.52 366.81 516.21 359.4C515.79 349.28 515.55 339.23 514.5 329.14C511.52 331.48 505.89 337.66 501.72 334.41C501.07 333.9 498.66 330.35 498.45 329.76C497.8 327.92 498.68 326.75 499.6 324.96C502 320.3 503.96 316.1 506.95 311.81C509.63 307.98 507.11 305.5 504.81 302.07C502.18 298.17 498.93 292.3 494.24 290.53C489.48 288.73 483.23 294.92 479.18 297.17C475.09 299.45 469.4 302.51 465.06 299.07C461.12 295.96 462.38 290.62 462.83 286.29C452.78 288.73 443.3 292.47 433.9 297.06C429.32 299.29 430.38 302.36 429.42 306.77C428.36 311.67 425.46 316.23 422.44 320.15C417.97 325.95 410.77 334.69 402.74 334.74C398.52 334.77 395.57 332.04 394.55 328.05C394.21 326.71 393.86 317.35 394.28 317.29C392.08 317.6 391.16 324.95 390.58 326.6C389.33 323.73 391.19 320.77 391.4 317.92C378.98 324.55 367.17 331.83 355.49 339.6C349.18 343.79 343.05 348.08 336.29 351.52C334.63 352.36 330.04 353.97 329.38 356.02C328.9 357.55 330.71 359.47 331.1 361.07C331.98 364.68 331.58 367.28 333.8 370.51C335.43 372.88 337.44 374.99 339.21 377.24C343.95 383.24 348.7 389.23 353.54 395.15C363.24 407 373.27 418.61 382.47 430.86C385.68 427.15 386.38 422.79 389.64 418.99C392.6 415.54 396.16 412.53 398.89 408.88C404.44 401.47 406.54 391.97 412.63 384.86C415.32 381.72 419.02 378.59 423.36 378.46C427.81 378.33 429.23 382.3 432.86 382.92C435.92 383.44 440.24 377.83 442.82 376.37C446.49 374.3 449.01 371.92 452.26 369.29C456.09 366.2 470 355.91 474.27 361.28C479.23 367.51 470 375.08 465.83 378.4C463.13 380.55 459.55 382.21 459.79 385.93C460.02 389.41 462.04 392.95 462.29 396.59C462.47 399.15 462.58 403.4 458.99 402.58C455.91 401.89 453.22 392.87 451.83 390.35C446.46 394.84 441.78 400.09 436.38 404.54C431.04 408.93 425.77 413.21 420.65 417.86C415.73 422.32 410.19 425.58 405.38 430.14C402.2 433.15 397.89 434.74 394.51 437.6C393.6 438.37 390.82 440.13 390.54 441.37C390.2 442.83 391.47 443.66 392.44 444.94C395.97 449.61 399.38 454.57 402.36 459.6C403.4 461.34 404.65 464.49 407.05 464.57C408.79 464.64 411.37 462.22 412.99 461.61C416.22 460.39 422.66 458.72 424.56 462.84C423.17 462.47 421.79 462.11 420.4 461.74C422.24 466.08 422.27 469.19 420.07 473.38C418.47 476.45 415.76 479.45 416.55 483.12C417.3 486.63 420.64 489.26 421.24 492.96C421.64 495.46 420.75 496.16 419.65 498.17C418.94 499.47 418.14 502.23 416.99 503.14C416.57 502.37 416.16 501.6 415.75 500.83C415.09 503.68 414.95 504 417.85 504.82C420.72 505.63 423.61 504.63 426.5 504.76C429.59 504.9 432.44 506.31 435.48 506.66C439.22 507.11 440.7 505.15 443.99 504.49C447.03 503.87 450.28 504.8 453.41 504.29C457.03 503.7 460.49 502.51 463.98 501.41C467.82 500.19 474.22 500.17 475.02 495.46C475.51 492.53 474.99 489.39 475.48 486.39C476.02 483.02 476.94 479.75 478.09 476.55C480.44 470.01 483.27 463.08 487.33 457.4C488.15 456.25 490.91 452.02 492.84 453.32C495.03 454.81 491.18 456.09 490.55 456.73C487.82 459.52 486.82 463.71 485.19 467.15C489.87 464.72 493.55 460.21 498.86 459.08C504.16 457.95 505.92 459.45 507.61 453.63C510.86 442.42 514.12 431.18 515.79 419.61ZM517.12 403.25C517.11 398.54 517.39 393.81 517.54 389.09C514.46 388.04 509.61 394.59 507.62 396.42C503.34 400.39 498.34 404.11 497.16 410.17C494.76 422.54 512.47 421.58 516.5 413.22C517.92 410.27 517.13 406.4 517.12 403.25ZM503.77 330.91C505.78 331.63 510.24 328.39 511.61 326.91C514.64 323.62 513.01 320.57 511.38 316.9C509.63 318.55 497.29 328.6 503.77 330.91ZM470.98 295.64C476.89 294.47 482.76 290.43 487.58 286.95C485.79 285.94 484.58 285.67 482.71 285.25C481.37 286.4 480.6 286.24 480.4 284.77C480.25 284.55 480.1 284.34 479.95 284.12C478.53 283.92 478.37 284.2 476.83 284.29C475.29 284.39 473.78 284.15 472.22 284.24C464.22 284.68 461.64 297.48 470.98 295.64ZM324.56 358.58C325.25 359.49 328.04 364.36 329.01 362.41C329.99 360.45 325.85 358.58 324.56 358.58ZM398.04 315.89C397.09 318.02 396.56 321.77 396.47 324.1C396.24 330.48 401.57 331.48 406.45 329.21C410.97 327.1 414.98 323.31 418.31 319.66C422.43 315.14 429.11 306.61 427.74 300.01C419.95 303.16 411.33 306.88 404.07 311.12C401.58 312.57 399.27 313.14 398.04 315.89ZM278.43 312.76C282.57 315.88 285.51 316.14 290.53 315.86C295.32 315.6 299 316.84 303.51 318.23C313.41 321.29 321.31 319.02 331 316.65C340.71 314.28 350.19 312.51 360.03 310.81C369.6 309.16 376.67 304.36 384.76 299.19C388.29 296.94 391.61 294.11 395.47 292.42C398.57 291.07 402.55 290.84 400.58 287.11C399.6 285.25 396.96 283.45 395.56 281.73C394.17 280.01 392.87 278.22 391.55 276.45C389.04 273.1 386.39 269.86 384.03 266.4C379.67 260.03 375.42 251.63 378.95 243.91C383.04 234.97 392.35 240.53 399.3 241.89C392.3 235.32 377.98 227.77 380.91 216.09C385.07 199.56 408.42 215.92 417.47 218.24C414.5 214.79 409.99 212.67 408.52 208.1C407.17 203.9 408.22 198.96 411.64 196.09C420.19 188.94 432.74 194.15 441.19 198.15C439.97 188.25 439.18 178.3 438.81 168.34C419.66 175.81 398.86 179.65 378.86 184.13C361.52 188.02 344.22 192.12 326.91 196.12C319.18 197.91 311.06 201.44 303.15 199.83C295.02 198.18 287.17 196.02 278.96 194.73C269.97 193.31 261.16 191.03 252.18 189.55C243.29 188.07 235.03 184.79 226.25 182.89C208.91 179.13 191.39 176.71 174.16 172.31C174.84 174.37 174.38 176.55 175.06 178.61C175.4 177.74 175.8 176.91 176.27 176.1C178.33 179.64 175.81 184.53 175.77 188.33C175.75 190.22 175.91 190.86 175.41 192.71C175.14 193.75 173.82 195.24 174.63 196.41C176.86 199.61 188.7 194.9 191.36 194.35C198.26 192.93 206.24 190.57 206.58 200.3C206.86 208.29 198.3 214.28 193.35 219.55C200.28 217.37 206.84 214.22 213.9 212.41C217.88 211.38 223.51 209.48 227.48 211.43C241.27 218.22 217.95 237.35 213.31 241.91C222.09 241.25 239.54 233.41 239.33 249.13C239.18 259.82 229.17 268.08 222.97 275.73C241.33 288.37 260.64 299.37 278.43 312.76ZM318.71 190.87C318.77 189.41 307.04 190.92 305.96 190.99C307.13 191.81 318.52 195.26 318.71 190.87ZM202.64 267.41C206.04 268.68 210.05 271.73 213.5 269.8C217.3 267.69 221.23 263.11 224.37 260.07C227.92 256.64 231.23 252.82 233.04 248.16C226.61 247.08 217.68 249.94 211.8 252.39C204.7 255.36 197.78 258.83 190.91 262.27C193.75 265.35 198.9 266 202.64 267.41ZM186.9 288.28C186.74 287.21 186.58 286.13 186.42 285.06C181.52 291.35 173.21 306.31 180.12 313.65C185.63 319.5 195.46 315.81 201.3 312.59C210.16 307.7 217.63 300.73 224.22 293.12C218.82 289.27 212.66 286.71 206.54 284.27C203.42 283.03 196.06 278.25 192.63 279.68C189.66 280.91 188.47 285.78 186.9 288.28ZM332.12 338.96C336.41 335.23 340.66 331.45 344.94 327.7C337.13 329.4 329.75 332.74 321.83 333.9C314.91 334.9 309.51 333.62 303.22 331.05C296.31 328.22 301.73 333.13 303.93 335.16C306.08 337.15 307.95 339.45 309.86 341.67C312.68 344.94 314.13 345.76 318.41 344.86C324.17 343.64 327.59 342.91 332.12 338.96ZM307.06 357.36C305.07 355.26 305.64 355.41 303.57 356.67C302.83 357.12 301.9 358.51 301.38 359.18C299.82 361.18 298.47 363.4 297.51 365.76C291.16 381.27 310.02 382.03 319.39 374.98C322.21 373.93 308.78 359.16 307.06 357.36ZM321.91 346.82C321.08 345.66 317.47 347.75 316.61 348.03C315.65 352.05 322.74 347.99 321.91 346.82ZM376.93 449.46C371.68 449.8 370.37 453.21 368.98 457.71C365.84 467.87 382.69 460.57 384.8 455.53C386.65 451.1 379.95 449.27 376.93 449.46ZM421.11 386.05C422.73 386.12 423.94 387.01 425.43 387.41C428.19 388.16 432.77 386.67 430.88 383.77C426.97 377.74 417.81 383.2 415.03 387.24C417.01 387.6 419.04 385.97 421.11 386.05ZM407.28 401.26C409.12 402.74 420.5 393.16 422.39 391.25C415.26 390.02 411 395.95 407.28 401.26ZM402.21 480.04C401.83 482.42 399.85 488.38 403.8 488.15C408.19 487.9 403.16 481.7 402.21 480.04ZM418.12 464.93C415.87 463.65 410.5 466.66 409.9 468.89C409.12 471.82 412.57 475.2 413.84 477.48C416.78 477.86 421.11 466.64 418.12 464.93ZM517.73 380.27C513.01 382.66 505.62 388.97 504.31 394.37C509.01 390.18 515.35 386.16 517.73 380.27ZM500.68 462.53C496.85 463.1 493.04 466.09 490.07 468.42C482.9 474.06 479.82 479.63 478.05 488.47C477.7 490.21 476.59 494.28 478.6 494.97C480.97 495.79 487.2 490.91 488.66 489.66C495.34 483.97 498.61 474.65 502.22 466.93C503.61 463.96 504.8 461.91 500.68 462.53ZM580.58 645.25C572.91 638.58 565.59 632.5 556.87 627.18C538.86 616.2 520.42 606.9 501.11 598.39C496.07 596.17 490.59 594.66 485.69 592.23C481.77 590.29 478.2 587.48 474.61 585.02C465.99 579.13 458.39 572.73 451.4 564.99C436.59 548.59 423.34 531.18 409.4 514.04C405.62 518.35 403.09 523.33 399.19 527.53C395.35 531.67 391.15 535.47 386.33 538.43C380.99 541.69 375.22 544.86 369.4 547.14C364.34 549.11 358.07 552.14 352.69 552.87C348.19 553.47 346.12 553.39 348.44 558.74C350.42 563.34 352.94 567.77 354.46 572.55C356.19 577.99 356.67 584.21 356.06 589.88C355.54 594.69 352.02 599.87 352.98 604.68C354.81 613.8 366.84 618.99 374.49 621.6C385 625.17 394.87 629.74 404.95 634.31C426.1 643.89 447.6 653.4 469.55 660.96C475.14 662.89 480.95 663.65 486.5 665.85C491.43 667.8 496.44 669.24 501.46 670.93C506.86 672.76 511.76 675.98 517.63 675.5C522.48 675.1 527.33 674.41 532.2 674.01C528.82 670.11 525.12 666.64 521.07 663.45C518.03 661.06 513.92 658.43 512.47 654.65C511.52 652.14 511.39 648.31 514.39 647.3C517.56 646.23 522.72 650.47 525.15 652C531.82 656.19 539.93 660.18 543.93 667.31C545.64 670.36 546.02 673.03 549.76 673.91C552.22 674.49 561.05 674.78 562.66 672.31C556.33 665.51 546.65 657.64 543.45 648.61C542.44 645.77 542.35 640.22 546.36 639.84C549.57 639.53 552.91 644.22 554.74 646.23C558.59 650.47 562.27 654.82 565.81 659.33C567.27 661.19 568.83 663 569.93 665.11C570.62 666.44 570.89 668.73 572.06 669.74C574.51 671.85 579.11 669.55 581.89 668.81C586.63 667.54 591.63 665.66 595.9 663.22C602.54 659.41 582.97 647.32 580.58 645.25Z" />
				<path id="react-path-65" fill-rule="evenodd" class="shp2" d="M430.32 144.4C430.53 144.6 431.01 144.73 430.32 144.4Z" />
				<path id="react-path-66" fill-rule="evenodd" class="shp2" d="M157.77 418.38C160.38 416.52 163.06 415.48 166.05 414.48C168.53 413.65 171.59 411.35 174.14 411.05C177.84 410.61 176.39 413.18 178.23 415.17C179.62 416.68 182.11 417.12 183.61 418.71C187.83 423.17 185.76 428.82 182.77 433.37C178.5 439.88 161.42 458.52 154.75 445.47C152.46 441 153.39 435.34 155.07 430.87C155.74 429.07 161.84 421.22 160.91 419.79C158.82 421.3 155.64 425.75 152.87 425.5C149.45 425.2 157.18 418.8 157.77 418.38ZM173.28 414.15C174.14 414.59 177.27 415.21 176.84 413.38C176.42 411.54 172.88 413.32 173.28 414.15ZM155.83 438.1C154.8 447.15 161.94 446.47 167.79 442.87C172.33 440.07 184.75 430.09 183.58 423.48C182.53 417.55 168.63 416.89 165.36 420.2C160.71 424.91 156.62 431.27 155.83 438.1Z" />
				<path id="react-path-67" fill-rule="evenodd" class="shp2" d="M348.51 438.1C344.78 444.84 337.94 450.83 330.12 451.87C321.58 453 316.07 446.6 315.51 438.37C315.21 433.74 316.24 428.92 318.13 424.71C319.74 421.1 324.33 417.77 325.13 414.07C320.36 415.02 317.19 418.97 313.51 421.82C310.79 418.27 319.74 413.03 321.99 411.84C328.83 408.21 336.99 410.33 342.89 414.9C350.68 420.93 353.49 429.1 348.51 438.1ZM333.47 414.35C325.29 413.08 319.56 424.6 318.16 431.23C316.51 439.01 319.53 448.76 328.84 448.41C338.19 448.05 347.08 438.85 348.82 429.88C350.31 422.2 339.9 415.34 333.47 414.35Z" />
				<path id="react-path-68" fill-rule="evenodd" class="shp2" d="M292.79 443.93C293.97 448.92 289.86 453.92 286.76 457.33C281.9 462.65 270.61 472.98 262.86 467.39C255.69 462.22 263.88 450.44 267.1 445.22C270.01 440.5 273.4 437.04 277.8 433.67C279.94 432.03 283.18 428.73 286.14 429.02C288.6 429.25 290.11 431.1 288.19 433.32C287.3 427.71 280.62 434.91 279.11 436.59C284.21 437.15 291.34 437.79 292.79 443.93ZM287.92 441.81C285.95 440.6 281.76 439.52 279.51 439.5C272.89 439.46 268.54 448.11 266 453.14C263.14 458.83 260.44 466.76 270.04 464.27C277.45 462.35 283.86 456.49 288.06 450.27C290.27 446.99 291.8 444.18 287.92 441.81Z" />
				<path id="react-path-69" fill-rule="evenodd" class="shp2" d="M225.61 350.92C215.15 349.4 219.26 337.29 223.33 331.9C226.05 328.3 229.57 325.13 233.54 322.89C238.48 320.1 240.48 320.77 245.56 322.52C264.38 329.03 237.09 352.58 225.61 350.92ZM248 327.17C245.72 324.94 241.91 324.88 238.97 325C232.15 325.3 227.43 330.38 223.91 335.79C221.57 339.38 218.98 346.82 225.61 347.59C232.87 348.44 241.68 341.23 246.02 336.28C248.31 333.66 251.12 330.21 248 327.17Z" />
				<path id="react-path-70" fill-rule="evenodd" class="shp2" d="M254.21 363.11C250.1 364.86 245.91 364.3 247.26 358.95C247.62 357.52 253.71 348.8 252.52 347.83C251.82 348.73 249.18 353.37 248.39 350.34C247.96 348.67 251.51 345.4 252.64 344.47C254.73 342.78 257.89 341.31 260.4 340.47C263.58 339.39 262.72 340.33 265.45 341.7C276.16 347.06 259.75 360.76 254.21 363.11ZM265.77 347.96C265.97 345.2 263.2 344.38 260.78 345C255.51 346.36 251.06 356.06 249.07 360.5C253.78 359.56 257.9 356.81 261.2 353.43C262.5 352.1 265.63 349.96 265.77 347.96Z" />
				<path id="react-path-71" fill-rule="evenodd" class="shp2" d="M349.89 474.02C364.14 468.2 359.27 488.96 351.53 493.49C344.76 497.45 341.78 477.33 349.89 474.02ZM351.68 489.64C354.39 487.78 357.73 481.71 357.33 478.3C356.89 474.62 353.86 474.36 350.93 476.16C347.68 478.14 347.1 481.89 346.69 485.43C347.19 489 347.91 492.23 351.68 489.64Z" />
				<path id="react-path-72" fill-rule="evenodd" class="shp2" d="M297 400.03C292.81 400.77 290.58 408.65 286.58 410.45C284.67 411.3 282.57 411.46 282.05 408.71C281.49 405.69 285.51 403.01 287.26 401.25C291.27 397.22 292.36 397.09 297 400.03ZM290.56 402.99C288.09 404.08 286.69 404.91 285.47 407.41C287.23 405.98 288.91 404.54 290.56 402.99Z" />
				<path id="react-path-73" fill-rule="evenodd" class="shp2" d="M287.87 244.77C288.1 253.16 288.29 261.55 288.48 269.94C288.54 272.89 287.84 277.09 288.72 279.92C289.11 281.16 292.65 286.56 293.9 286.91C298.29 288.13 296.72 277.13 296.75 274.42C296.86 265.28 296.72 256.14 296.69 247C296.67 242.29 298 202.81 291.89 203C290.83 203.03 288.24 207.55 287.85 208.45C286.62 211.3 287.08 215.51 287.1 218.54C287.19 227.28 287.64 236.03 287.87 244.77Z" />
				<path id="react-path-74" fill-rule="evenodd" class="shp2" d="M324.87 269.23C325.21 271.55 325.03 275.42 327.64 276.62C329.91 277.67 330.78 276.42 331.63 274.48C333.59 270.01 332.88 263.17 332.85 258.55C332.78 249.38 331.74 240.26 331.03 231.13C330.72 227.12 331.37 223.1 330.87 218.91C330.65 217.07 330.43 209.67 327.02 210.01C323.94 210.32 324.21 218.08 324.05 220.08C322.65 236.71 322.4 252.62 324.87 269.23Z" />
				<path id="react-path-75" fill-rule="evenodd" class="shp2" d="M470.39 460.24C469.08 466.92 447.76 490.18 442.39 477.17C439.21 469.45 446.11 461.05 451.49 456.58C454.83 453.81 458.99 451.1 463.53 451.94C467.38 452.65 471.22 456 470.39 460.24ZM459.38 448.26C457.87 448.61 445.28 457.45 445.17 457.33C444.08 456.24 452.01 444.4 452.83 443.37C459.56 434.84 464.03 441.3 468.24 448C467.34 444 464.88 438.19 460.75 436.49C455.55 434.36 451.49 439.63 448.99 443.42C445.45 448.79 443.5 454.61 441.54 460.66C440.6 463.54 439.53 466.16 437.94 468.76C436.38 471.32 433.64 474.15 434.04 477.4C436.27 476.16 437.45 473.74 438.85 471.74C440.42 472.38 439.88 477.37 440.2 478.64C441 481.83 443.18 484.33 446.56 484.88C452.84 485.9 459.63 480.09 463.84 476.13C468.27 471.97 473.04 466.26 473 459.85C472.96 453.16 466.37 446.6 459.38 448.26Z" />
				<path id="react-path-76" fill-rule="evenodd" class="shp2" d="M472.56 351.06C469.04 354.19 463.54 358.28 458.72 358.65C452.69 359.11 451.61 353.73 450.64 349C446.87 353 443.1 357 439.33 361C437.05 357.76 447.14 349.83 448.76 347.71C452.32 343.08 453.36 337.26 456.38 332.33C458.91 328.19 462.51 323.91 467.52 323.13C471.49 322.51 477.71 324.08 479.09 328.46C473.48 326.31 468.42 323.65 463.08 327.94C459.16 331.09 456.38 336.36 455.15 341.21C460.6 336.99 466.49 331.7 473.8 331.98C486.07 332.44 477.11 347.01 472.56 351.06ZM464.81 338.13C461.13 339.94 455.51 342.54 453.86 346.65C451.9 351.52 455.11 355.12 459.97 354.19C466.6 352.92 472.86 346.37 476.43 340.91C481.36 333.36 467.74 336.7 464.81 338.13Z" />
				<path id="react-path-77" fill-rule="evenodd" class="shp2" d="M385.99 365.34C385.87 368.42 384.49 371.31 382.81 373.82C379.49 378.8 374.05 383.73 368.02 384.81C361.46 385.98 356.79 381.63 357.01 375.03C357.06 373.59 362.64 359.17 362.36 358.98C360.01 361.47 358.92 360.68 360.45 357.68C362.11 354.45 365.11 352.15 368.29 350.64C370.58 349.56 375.39 346.89 378.02 347C382.66 347.21 380.74 351.72 381.68 354.59C383.03 358.7 386.19 360.6 385.99 365.34ZM378.2 352.62C381.35 353.85 381.04 350.65 378.52 350.08C375.28 349.35 375.83 351.7 378.2 352.62ZM382.94 362.84C381.98 360.09 378.27 356.51 375.75 355.25C372.59 353.68 371.05 354.94 368.79 357.37C365.1 361.33 357.37 371.75 359.77 377.69C361.5 381.97 368.32 380.03 371.41 378.61C376.26 376.38 385.02 368.74 382.94 362.84Z" />
				<path id="react-path-78" fill-rule="evenodd" class="shp2" d="M410.61 352.17C408.07 347.27 413.96 339.02 419.24 341.43C430.23 346.46 413.95 358.59 410.61 352.17ZM420.48 345.77C419.31 345.82 411.85 348.7 412.95 350.65C414.45 353.33 419.9 346.85 420.48 345.77Z" />
				<path id="react-path-79" fill-rule="evenodd" class="shp2" d="M59.95 336.71C59.65 334.63 54.97 337.66 55 339C55.77 337.45 60.56 341.06 59.95 336.71Z" />
				<path id="react-path-80" fill-rule="evenodd" class="shp2" d="M315.81 179C321.76 178.56 314.17 148.51 309.83 151.17C305.13 154.05 310.34 179.4 315.81 179Z" />
				<path id="react-path-81" fill-rule="evenodd" class="shp2" d="M326.93 164.96C332.51 165.76 331.62 152.95 328.62 150.66C323.08 146.42 320.15 163.99 326.93 164.96Z" />
			</g>
		</g>
	</g>
</svg>